Coordinates
version=1
nRows=14
nColumns=63
inDegrees=yes

Units are S.I. units (second, meters, Newtons, ...)
If the header above contains a line with 'inDegrees', this indicates whether rotational values are in degrees (yes) or radians (no).

endheader
time	pelvis_tilt	pelvis_list	pelvis_rotation	pelvis_tx	pelvis_ty	pelvis_tz	hip_flexion_r	hip_adduction_r	hip_rotation_r	knee_angle_r	knee_angle_r_beta	ankle_angle_r	subtalar_angle_r	mtp_angle_r	hip_flexion_l	hip_adduction_l	hip_rotation_l	knee_angle_l	knee_angle_l_beta	ankle_angle_l	subtalar_angle_l	mtp_angle_l	L5_S1_Flex_Ext	L5_S1_Lat_Bending	L5_S1_axial_rotation	L4_L5_Flex_Ext	L4_L5_Lat_Bending	L4_L5_axial_rotation	L3_L4_Flex_Ext	L3_L4_Lat_Bending	L3_L4_axial_rotation	L2_L3_Flex_Ext	L2_L3_Lat_Bending	L2_L3_axial_rotation	L1_L2_Flex_Ext	L1_L2_Lat_Bending	L1_L2_axial_rotation	L1_T12_Flex_Ext	L1_T12_Lat_Bending	L1_T12_axial_rotation	Abs_r3	Abs_r2	Abs_r1	Abs_t1	Abs_t2	neck_flexion	neck_bending	neck_rotation	arm_flex_r	arm_add_r	arm_rot_r	elbow_flex_r	pro_sup_r	wrist_flex_r	wrist_dev_r	arm_flex_l	arm_add_l	arm_rot_l	elbow_flex_l	pro_sup_l	wrist_flex_l	wrist_dev_l
1.900000	-2.212038	0.054139	78.160750	0.242472	0.819068	0.710451	0.283513	-0.292282	0.757405	13.169546	0.229852	34.598283	-5.831426	0.000000	-5.078763	1.451472	8.256358	2.804011	0.048939	37.742374	-4.652039	0.000000	-0.101679	-0.617595	-0.390104	-0.188828	-0.821401	-0.414485	-0.167048	-1.501621	-0.414485	-0.116209	-1.501621	-0.341341	-0.094419	-1.259400	-0.316959	-0.058099	-0.956655	-0.292578	-0.726281	-6.986359	-2.169641	0.000000	0.000000	24.337174	12.001549	-22.345770	65.756500	-37.389529	50.326147	44.804283	45.918926	47.005434	33.711221	-4.420652	-20.142765	16.289695	46.843488	87.624746	-11.418481	-6.319061
1.925000	-2.282021	-0.235138	78.495514	0.241157	0.818695	0.712624	0.858398	-0.360806	0.404510	13.470990	0.235113	34.653255	-5.856375	0.000000	-4.574405	1.474988	8.798935	2.789597	0.048688	37.584861	-4.967056	0.000000	-0.099266	-0.592256	-0.492687	-0.184346	-0.787700	-0.523480	-0.163083	-1.440011	-0.523480	-0.113451	-1.440011	-0.431101	-0.092178	-1.207728	-0.400308	-0.056720	-0.917404	-0.369515	-0.709044	-6.699716	-2.740178	0.000000	0.000000	24.579819	11.903899	-21.612567	65.896705	-36.803946	49.833474	44.356939	46.518726	46.755423	34.109268	-4.340232	-20.444171	16.247697	49.407209	88.788134	-10.820806	-5.762901
1.950000	-2.311357	-0.555641	78.899835	0.239623	0.818349	0.714574	1.432643	-0.399609	-0.030295	13.747033	0.239931	34.742928	-5.793304	0.000000	-4.039201	1.457108	9.273926	2.782725	0.048568	37.488533	-5.066143	0.000000	-0.093577	-0.553898	-0.619895	-0.173782	-0.736684	-0.658639	-0.153737	-1.346748	-0.658639	-0.106949	-1.346748	-0.542408	-0.086895	-1.129509	-0.503665	-0.053470	-0.857988	-0.464922	-0.668410	-6.265805	-3.447672	0.000000	0.000000	24.845217	11.739802	-20.638109	66.059008	-36.190453	49.306150	43.994423	48.032259	46.249817	33.600779	-4.138749	-20.750611	16.326231	52.435663	89.836957	-9.464779	-4.850781
1.975000	-2.308753	-0.889698	79.345139	0.237972	0.818057	0.716218	1.976428	-0.413313	-0.471457	13.966022	0.243753	34.871823	-5.670461	0.000000	-3.503737	1.411977	9.764953	2.772853	0.048395	37.426048	-5.099513	0.000000	-0.083799	-0.505752	-0.760967	-0.155623	-0.672650	-0.808528	-0.137673	-1.229685	-0.808528	-0.095774	-1.229685	-0.665846	-0.077816	-1.031329	-0.618286	-0.047883	-0.783410	-0.570725	-0.598568	-5.721165	-4.232271	0.000000	0.000000	25.113400	11.542740	-19.490106	66.233617	-35.623859	48.837650	43.784307	50.425452	45.441804	32.209654	-3.722661	-21.127906	16.617427	55.918434	90.215176	-7.493107	-3.386562
2.000000	-2.279187	-1.217943	79.824808	0.236276	0.817836	0.717557	2.478503	-0.402947	-0.866571	14.139392	0.246779	35.055830	-5.513993	0.000000	-2.989454	1.343430	10.244775	2.758822	0.048151	37.396664	-5.036927	0.000000	-0.071822	-0.450006	-0.918324	-0.133382	-0.598507	-0.975720	-0.117997	-1.094144	-0.975720	-0.082086	-1.094144	-0.803534	-0.066694	-0.917651	-0.746139	-0.041039	-0.697059	-0.688743	-0.513021	-5.090554	-5.107445	0.000000	0.000000	25.401107	11.292909	-18.170673	66.460961	-35.015181	48.420674	43.603809	53.005908	44.623456	30.656539	-3.076141	-21.590904	16.998241	59.882121	89.700128	-5.075802	-1.352422
2.025000	-2.237710	-1.526641	80.299589	0.234634	0.817715	0.718601	2.931301	-0.383986	-1.192368	14.262423	0.248926	35.294869	-5.292964	0.000000	-2.511151	1.269308	10.698273	2.739097	0.047806	37.400478	-4.895200	0.000000	-0.058569	-0.391499	-1.075968	-0.108769	-0.520694	-1.143216	-0.096223	-0.951890	-1.143216	-0.066939	-0.951890	-0.941472	-0.054387	-0.798345	-0.874224	-0.033466	-0.606432	-0.806976	-0.418353	-4.428714	-5.984213	0.000000	0.000000	25.706847	11.000574	-16.836415	66.746539	-34.490106	48.181802	43.554010	55.963127	43.718445	28.760848	-2.089283	-22.114204	17.612558	64.205842	88.330645	-2.646247	0.974973
2.050000	-2.192832	-1.796286	80.751913	0.233125	0.817709	0.719343	3.318705	-0.366761	-1.446934	14.339833	0.250277	35.585537	-5.016604	0.000000	-2.091017	1.200919	11.113870	2.716668	0.047415	37.436239	-4.677451	0.000000	-0.045466	-0.332999	-1.231883	-0.084436	-0.442889	-1.308875	-0.074697	-0.809654	-1.308875	-0.051964	-0.809654	-1.077897	-0.042220	-0.679052	-1.000905	-0.025979	-0.515816	-0.923912	-0.324762	-3.766953	-6.851362	0.000000	0.000000	26.009405	10.666127	-15.512124	67.123786	-34.008342	48.163834	43.550250	59.041487	42.898659	26.699387	-0.697564	-22.572910	18.345996	68.702284	86.443549	-0.479847	3.543210
2.075000	-2.149818	-2.020471	81.182503	0.231787	0.817820	0.719816	3.626391	-0.346169	-1.552253	14.352509	0.250499	35.894561	-4.793645	0.000000	-1.738388	1.139753	11.492014	2.687077	0.046898	37.497211	-4.397350	0.000000	-0.033044	-0.277190	-1.375911	-0.061365	-0.368663	-1.461905	-0.054287	-0.673960	-1.461905	-0.037766	-0.673960	-1.203922	-0.030684	-0.565246	-1.117927	-0.018881	-0.429368	-1.031933	-0.236028	-3.135631	-7.652402	0.000000	0.000000	26.279544	10.284154	-14.315523	67.543518	-33.659172	48.343092	43.662922	62.262384	42.090034	24.429866	1.252221	-22.860211	19.362912	72.956498	84.342724	1.192306	6.011345
2.100000	-2.136675	-2.194777	81.546811	0.230737	0.817984	0.720067	3.880412	-0.354607	-1.516430	14.348620	0.250431	36.265426	-4.578160	0.000000	-1.463210	1.118698	11.875716	2.643360	0.046135	37.554555	-4.181334	0.000000	-0.021480	-0.228570	-1.508004	-0.039891	-0.303999	-1.602255	-0.035290	-0.555746	-1.602255	-0.024550	-0.555746	-1.319504	-0.019946	-0.466101	-1.225253	-0.012274	-0.354055	-1.131003	-0.153430	-2.585633	-8.387068	0.000000	0.000000	26.533538	9.867656	-13.209511	68.058267	-33.352271	48.756799	43.803782	65.392946	41.518934	22.200730	3.692376	-22.878538	20.434028	76.813182	82.295220	2.370031	8.494241
2.125000	-2.139457	-2.317265	81.807064	0.230033	0.818193	0.720146	4.072924	-0.369750	-1.308671	14.317621	0.249890	36.655921	-4.395461	0.000000	-1.274572	1.118804	12.198438	2.586374	0.045141	37.615774	-3.998964	0.000000	-0.011997	-0.186575	-1.614989	-0.022280	-0.248145	-1.715926	-0.019711	-0.453639	-1.715926	-0.013712	-0.453639	-1.413115	-0.011141	-0.380464	-1.312179	-0.006855	-0.289005	-1.211242	-0.085697	-2.110574	-8.982085	0.000000	0.000000	26.754390	9.419042	-12.211867	68.606726	-33.153402	49.330270	44.047302	68.400690	41.062679	19.990594	6.685375	-22.546972	21.750598	79.809100	80.309793	3.096748	10.513609
2.150000	-2.166902	-2.413963	81.932899	0.229737	0.818376	0.720120	4.248637	-0.384091	-0.876238	14.293272	0.249465	37.048298	-4.313388	0.000000	-1.141324	1.140604	12.420818	2.519314	0.043970	37.675644	-3.858779	0.000000	-0.001838	-0.152983	-1.699307	-0.003413	-0.203468	-1.805514	-0.003020	-0.371964	-1.805514	-0.002101	-0.371964	-1.486894	-0.001707	-0.311964	-1.380687	-0.001050	-0.236971	-1.274480	-0.013128	-1.730578	-9.451037	0.000000	0.000000	26.947057	8.911791	-11.414247	69.199994	-33.020060	50.111343	44.372494	71.300379	40.568990	17.663918	10.171830	-21.806774	23.180429	81.659052	78.599542	3.524570	11.904695
2.175000	-2.249852	-2.503068	81.921386	0.229872	0.818485	0.720005	4.441690	-0.433532	-0.365801	14.294425	0.249485	37.482146	-4.158772	0.000000	-1.032492	1.209730	12.686837	2.446537	0.042700	37.686374	-3.971747	0.000000	0.012870	-0.132480	-1.761341	0.023900	-0.176199	-1.871425	0.021144	-0.322112	-1.871425	0.014709	-0.322112	-1.541174	0.011951	-0.270153	-1.431090	0.007354	-0.205212	-1.321006	0.091927	-1.498642	-9.796053	0.000000	0.000000	27.102829	8.378046	-10.928985	69.702127	-32.909757	50.785762	44.792000	74.353129	39.994907	15.198643	14.140533	-20.682628	24.799836	82.178187	77.338009	3.405970	12.597675
2.200000	-2.378527	-2.582487	81.772201	0.230447	0.818510	0.719834	4.643313	-0.495778	0.296482	14.307023	0.249705	37.905255	-4.076823	0.000000	-0.946505	1.311488	12.867033	2.371685	0.041394	37.685235	-4.172382	0.000000	0.031346	-0.124641	-1.807442	0.058213	-0.165773	-1.920407	0.051499	-0.303053	-1.920407	0.035826	-0.303053	-1.581512	0.029108	-0.254169	-1.468546	0.017911	-0.193070	-1.355581	0.223903	-1.409969	-10.052449	0.000000	0.000000	27.230090	7.874652	-10.750313	70.167525	-32.779603	51.528407	45.233879	77.277571	39.274838	12.657016	18.501930	-19.201443	26.422936	81.371332	76.485146	3.049446	12.796005
2.225000	-2.559925	-2.656215	81.445064	0.231521	0.818449	0.719700	4.873662	-0.574678	1.096910	14.343857	0.250348	38.312314	-4.032377	0.000000	-0.877291	1.449964	12.919649	2.285309	0.039886	37.660283	-4.464154	0.000000	0.054112	-0.131401	-1.830606	0.100492	-0.174764	-1.945019	0.088901	-0.319489	-1.945019	0.061845	-0.319489	-1.601781	0.050249	-0.267954	-1.487368	0.030920	-0.203541	-1.372955	0.386520	-1.486438	-10.181284	0.000000	0.000000	27.329287	7.461655	-10.907784	70.560390	-32.605007	52.282724	45.654074	79.986344	38.422889	10.126326	23.112171	-17.403279	27.869681	79.361388	75.928389	2.595353	12.702317
